PathFileType	4	(X/Y/Z)	pose_F01_0-90.trc
DataRate	CameraRate	NumFrames	NumMarkers	Units	OrigDataRate	OrigDataStartFrame	OrigNumFrames
30	30	8	21	m	30	22	90
Frame#	Time	CHip			RHip			RKnee			RAnkle			RBigToe			RSmallToe			RHeel			LHip			LKnee			LAnkle			LBigToe			LSmallToe			LHeel			Neck			Nose			RShoulder			RElbow			RWrist			LShoulder			LElbow			LWrist			
		X1	Y1	Z1	X2	Y2	Z2	X3	Y3	Z3	X4	Y4	Z4	X5	Y5	Z5	X6	Y6	Z6	X7	Y7	Z7	X8	Y8	Z8	X9	Y9	Z9	X10	Y10	Z10	X11	Y11	Z11	X12	Y12	Z12	X13	Y13	Z13	X14	Y14	Z14	X15	Y15	Z15	X16	Y16	Z16	X17	Y17	Z17	X18	Y18	Z18	X19	Y19	Z19	X20	Y20	Z20	X21	Y21	Z21	
22	0.7333333333333333	-0.22264863945137975	1.8158504953705856	-0.5847850388009143	-0.23995153931372268	1.814922870877925	-0.5311598913254905	-0.2317376096218338	1.6810307319707791	-0.5253157297525936	-0.20764020311558662	1.5660263831942283	-0.49948442985905317	-0.24151813589566756	1.5265173219959016	-0.5045101073755103				-0.1958075424233134	1.5630145762922651	-0.4896745283001192	-0.20734269507469164	1.817617154921178	-0.6391836456856467	-0.201091491519624	1.682650536607502	-0.5976273053466115	-0.20576266192685136	1.5494028074038186	-0.5731661061524937	-0.25603615551379194	1.5134788737116849	-0.5840828008347305	-0.24101854016024055	1.5187276553422584	-0.6028100088180482	-0.1971859301095739	1.537895032116452	-0.5595687025763421	-0.20730547465928875	1.9838115895449553	-0.609994675452729	-0.24006135970348855	2.0550002734057995	-0.6239678108248652	-0.2265430536418028	1.9807716651049354	-0.5260155014788642	-0.23872715341555342	1.89074392138996	-0.4928608265890473	-0.25719404040168237	1.8156916549855309	-0.493960787595225	-0.18284081104042454	1.9855410768748782	-0.6925238381653243	-0.1790893023473248	1.8933765848123976	-0.7089995434508132	-0.19170140585680606	1.816413476386053	-0.7131312159617116
23	0.7666666666666667	-0.22486334141026518	1.81708073899997	-0.5826170455551664	-0.23921739484195306	1.8162732362080138	-0.5281074863957848	-0.23122233436171327	1.681571157535235	-0.5214799176512926	-0.20764020311558662	1.5660263831942283	-0.49948442985905317	-0.24151813589566756	1.5265173219959016	-0.5045101073755103				-0.1958075424233134	1.5630145762922651	-0.4896745283001192	-0.20774191746617962	1.817665548009693	-0.6389511573095639	-0.20132512609420328	1.6810555883308262	-0.5971065328135737	-0.20517279518583653	1.5483818495525494	-0.5693795662330591	-0.25822090534160863	1.5105308625753482	-0.5815830542887273	-0.24341388376263856	1.517074149910542	-0.600034604307468	-0.19639775683415897	1.5387436303057789	-0.5563498430232289	-0.20721821944838612	1.982556619492057	-0.6096652232366144	-0.24007834553832935	2.055123373653922	-0.6239087538091244	-1.7129298371619077	1.8891694707232516	1.1013777444711124	-0.23864572078948335	1.8924163492907082	-0.492883605820803	-0.2593771978344366	1.8172788629043348	-0.4918273659510888	-0.18286202746955346	1.985370359944459	-0.692478945084878	-0.1792893908024081	1.8921052521909019	-0.7087823311906601	-0.19542457886038705	1.8186271372947334	-0.7057779331967112
24	0.8	-0.22505823450552898	1.8184196581922007	-0.5826931619289043	-0.23925515845559417	1.8161128477720507	-0.5281265356420862	-0.22892758405413122	1.6799952537007172	-0.5150167001401472	-0.20764020311558662	1.5660263831942283	-0.49948442985905317	-0.24151813589566756	1.5265173219959016	-0.5045101073755103				-0.1958075424233134	1.5630145762922651	-0.4896745283001192	-0.20986653897519214	1.8174731086076097	-0.6366924031138294	-0.20127723911365134	1.680681672203731	-0.5969737802394611	-0.20607735910421435	1.5480682528440672	-0.5725919725667461	-0.25591007805507016	1.51225161471724	-0.5842788338357359	-0.24315248378722704	1.5184404040901711	-0.6006462158234039	-0.19808699692030382	1.5349378407154943	-0.5626251513658188	-0.20625437978559977	1.9851755041969035	-0.6068322411632368	-0.2421298008661361	2.0551856396999826	-0.6216963527562109	-0.22533140043477004	1.9822384258974075	-0.5229774426396976	-0.2415586212483025	1.8924505414636061	-0.4939548552931047	-0.26148044517471214	1.8142880798809191	-0.4893479914986217	-0.18425603171214594	1.9864573023790995	-0.6874002179072639	-0.18086861626227943	1.8932432428017456	-0.7036584742143148	-0.19613027366021366	1.8196845455060062	-0.6971365320548786
25	0.8333333333333334	-0.22700790259790785	1.819812726993215	-0.580708402129764	-0.24120766061646545	1.8185371210113106	-0.5263210332320006	-0.22548262636414954	1.6821352104495775	-0.5058603815801005	-0.20764020311558662	1.5660263831942283	-0.49948442985905317	-0.24151813589566756	1.5265173219959016	-0.5045101073755103				-0.1958075424233134	1.5630145762922651	-0.4896745283001192	-0.21176182143555844	1.821409593571017	-0.635106994063416	-0.20283688090766888	1.6832493280472354	-0.5955925393846975	-0.20452890989427516	1.5510038774170933	-0.5705944208737703	-0.2559702616304433	1.5127807915308846	-0.5842617435802129	-0.24221024688544282	1.518903621633	-0.5975184388782729	-0.19443725053588085	1.5399176893791102	-0.5581619639913076	-0.20833245754961827	1.9853595753985427	-0.6044525633800576	-0.24135737775766147	2.056269840469735	-0.6192240542007311	-0.22742131896299478	1.9822678297681084	-0.520632186815161	-0.23966756501846845	1.8925085892351579	-0.48743028010744144	-0.26143671381206535	1.814115482928545	-0.48060615130416956	-0.18347085751219294	1.9863817347307458	-0.6842870362891657	-0.18509618202824457	1.8988572548393359	-0.6997854851354465	-0.1977722505205336	1.8260548229928026	-0.6923047894957546
26	0.8666666666666667	-0.2291542815554972	1.8211771728265558	-0.5785398982405026	-0.24130536927524684	1.8199881519846903	-0.5262844092035249	-0.22537367432609867	1.6816784399912945	-0.5057167413250219	-0.20764020311558662	1.5660263831942283	-0.49948442985905317	-0.24151813589566756	1.5265173219959016	-0.5045101073755103				-0.1958075424233134	1.5630145762922651	-0.4896745283001192	-0.21421708572326478	1.8213612319116943	-0.6326574243662056	-0.2028871680145486	1.6831351307789173	-0.59546178602177	-0.20487208142967453	1.5497990766486711	-0.5699338809485434	-0.25623712459862436	1.5144175214002102	-0.5839309053939011	-0.24219032945341362	1.518924033168224	-0.597508531854541	-0.19662087015008153	1.540251950672659	-0.5560326900781175	-0.20766506381438202	1.983942868319815	-0.6012528132467306	-0.24335525062135507	2.05618272177694	-0.6171128587259908	-0.22650063803805845	1.9820769296034828	-0.5173390418771595	-0.24077429750025842	1.8908084365486295	-0.4818377818220817	-0.2608081552591879	1.8170933204702782	-0.4776357442076621	-0.18564508392083112	1.9863706942759942	-0.6820407920687154	-0.18474657086819096	1.8971259638720706	-0.6993850806912448	-0.19972771216211424	1.824691418821608	-0.6934517423708223
27	0.9	-0.22890212353567366	1.8211865917532295	-0.5784093111050146	-0.2420548991882225	1.8199728854988644	-0.5209070536692135	-0.2239759458662114	1.6814040336462883	-0.5029094347476946	-0.20764020311558662	1.5660263831942283	-0.49948442985905317	-0.24151813589566756	1.5265173219959016	-0.5045101073755103				-0.1958075424233134	1.5630145762922651	-0.4896745283001192	-0.21376059043855292	1.8221936312520342	-0.6327553409627594	-0.20418598275162392	1.6841297115446643	-0.5900328747543211	-0.20488327038964085	1.5496540024419017	-0.5699618386906794	-0.2565487539807639	1.5130461458012285	-0.5833008307479749	-0.24222241515459314	1.5189272678211307	-0.5974912057541407	-0.19648947396197014	1.5396000273003319	-0.5560854541380674	-0.2088792446073686	1.9833167200778365	-0.5958815304401964	-0.24342862974555712	2.0562852668511793	-0.6169773297949956	-0.22963902833269326	1.9802888607810152	-0.5098637281682696	-0.24198403786099545	1.8932425479536605	-0.4767204087247304	-0.2619263119911951	1.820857828976376	-0.47271212213973973	-0.18573476864611646	1.9859009735467723	-0.6818673772995607	-0.1870930500489902	1.8961793195334842	-0.6968370561297623	-0.19838426477734572	1.8208382689876803	-0.6864626660349818
28	0.9333333333333333	-0.2298399912402327	1.8228808479045635	-0.5731979454077255	-0.23897061638335484	1.821200299438248	-0.5112213069079163	-0.2250221151515509	1.6818398871222953	-0.49734373470179283	-0.20764020311558662	1.5660263831942283	-0.49948442985905317	-0.24151813589566756	1.5265173219959016	-0.5045101073755103				-0.1958075424233134	1.5630145762922651	-0.4896745283001192	-0.2148470538664164	1.823364938559241	-0.6276189356194748	-0.20387445044482208	1.6848274888717223	-0.5905927751598893	-0.20486208169858444	1.5495798949370505	-0.5700632973500642	-0.25625483775542734	1.5113240728575204	-0.5836849631339383	-0.24316327173942467	1.5187041699918127	-0.6006633584925607	-0.19706974600998697	1.537782887181244	-0.5595766966238485	-0.20915150508797936	1.9824701654441135	-0.587476643131472	-0.24533372651842061	2.0552874880141987	-0.6143019264093776	-0.22775985795775788	1.9797416679647153	-0.5032938215105853	-0.24093334467312816	1.891214297834193	-0.4731262013834433	-0.2632556793670912	1.815577672282871	-0.4696207982173159	-0.18705927602805625	1.9855066369561625	-0.6765641221156221	-0.18627281813028826	1.8964049739739701	-0.6936713997843271	-0.20039171761490407	1.823182113141631	-0.6845578748826063
29	0.9666666666666667	-0.22913809877399394	1.820320979783081	-0.5608442249232787	-0.24100496933365942	1.8175729078929797	-0.4999245004765324	-0.22530450617023803	1.680468753850225	-0.4967405872605498	-0.20764020311558662	1.5660263831942283	-0.49948442985905317	-0.24151813589566756	1.5265173219959016	-0.5045101073755103				-0.1958075424233134	1.5630145762922651	-0.4896745283001192	-0.21706527924377023	1.8211983817150736	-0.6247065875415269	-0.20429613455606394	1.6851560245100636	-0.5898505095936725	-0.20486975539441094	1.54971083631031	-0.5699858041531483	-0.2561712840308607	1.5111389035954628	-0.58369406392099	-0.24315897511936574	1.5187974029696476	-0.6006591925384627	-0.19609045465269279	1.5376014622818501	-0.5563413199846633	-0.21126413655932996	1.9818863125811654	-0.5850703976926551	-0.2417917715592063	2.0538081171457208	-0.6021140738886166	-0.2308360389190124	1.980763624672311	-0.4961684838212737	-0.24201392531348234	1.8897909539196172	-0.4675290230439963	-0.26153822536599486	1.8175200989594313	-0.45432294118457267	-0.18912214698926824	1.9836229227892173	-0.6737927930803462	-0.18366446790551394	1.894563381087615	-0.6839075712898605	-0.19964357668708535	1.819097275659471	-0.6808322615510436
